<svg xmlns="http://www.w3.org/2000/svg" xmlns:xlink="http://www.w3.org/1999/xlink" preserveAspectRatio="xMidYMid" width="26" height="24" viewBox="0 0 26 24">
  <defs>
    <style>
      .cls-1 {
        fill: #fff;
      }

      .cls-1, .cls-2 {
        fill-rule: evenodd;
      }

      .cls-2 {
        fill: #f77bff;
      }
    </style>
  </defs>
  <g>
    <path d="M12.632,6.375 C15.870,6.375 18.494,8.919 18.494,12.056 C18.494,15.194 15.870,17.737 12.632,17.737 C9.395,17.737 6.771,15.194 6.771,12.056 C6.771,8.919 9.395,6.375 12.632,6.375 Z" class="cls-1"/>
    <path d="M15.092,2.648 C15.018,2.674 14.939,2.685 14.864,2.704 C15.926,2.932 16.943,3.280 17.890,3.735 C19.907,4.600 21.594,6.011 22.639,7.812 C23.139,8.583 23.534,9.420 23.806,10.315 C25.549,16.046 21.552,21.960 14.879,23.524 C10.187,24.624 3.023,23.832 0.001,20.945 C2.427,22.203 7.830,22.084 10.801,21.388 C10.877,21.370 10.953,21.351 11.029,21.332 C9.967,21.104 8.950,20.756 8.002,20.301 C5.986,19.436 4.299,18.025 3.254,16.224 C2.754,15.454 2.358,14.616 2.086,13.721 C0.344,7.990 4.341,2.076 11.014,0.512 C15.706,-0.588 22.977,0.025 25.999,2.912 C23.573,1.653 18.329,1.507 15.092,2.648 ZM8.934,9.722 C7.700,11.782 8.509,14.458 10.741,15.701 C12.972,16.943 15.780,16.280 17.014,14.220 C18.247,12.160 17.438,9.483 15.207,8.241 C12.976,6.999 10.167,7.662 8.934,9.722 Z" class="cls-2"/>
  </g>
</svg>
